
@startuml

[*] --> S1

state S1 {
    S1:Entry: s1Entry(); s1Entry2(); foo()
    S1:Exit: s1Exit(); s1Exit2(); foo()
}

state S2 {
    S2:Entry: s2Entry(); s2Entry2(); foo()
    S2:Exit: s2Exit(); s2Exit2()
}

S1 --> S2: EV1[g1(U16)]
S1 --> S2: EV2[g2()]
S2 --> S1: EV1/a1(U16); a2(); foo()

@enduml
