
@startuml

[*] --> S1

state S1 {
    S1:Entry: s1Entry()
}

state S2 {
    S2::Entry: s2Entry()
}

state c1 <<choice>>
state c2 <<choice>>
S1 --> c1 : EV1
c1 --> c2 : [guard1()]/action1()
c1 --> S1 : /action4()
c2 --> S1 : [guard2()]/action2()
c2 --> S2 : /action3()
S2 --> S1 : EV1[guard3()]/action5()
@enduml
